HIERARCHY
ROOT SpineBase
{
  OFFSET 0.000000 0.000000 0.000000
  CHANNELS 6 Xposition Yposition Zposition Zrotation Xrotation Yrotation
  JOINT SpineMid
  {
    OFFSET 0.000000 32.179382 0.000000
    CHANNELS 3 Zrotation Xrotation Yrotation
    JOINT SpineShoulder
    {
      OFFSET 0.095736 23.854929 -0.772079
      CHANNELS 3 Zrotation Xrotation Yrotation
      JOINT Neck
      {
        OFFSET 0.087817 7.881013 -0.584709
        CHANNELS 3 Zrotation Xrotation Yrotation
        JOINT Head
        {
          OFFSET -5.450996 14.134199 -1.626885
          CHANNELS 3 Zrotation Xrotation Yrotation
          End Site
          {
            OFFSET 0 0 0
          }
        }
      }
      JOINT ShoulderLeft
      {
        OFFSET -18.044993 -6.771080 5.546478
        CHANNELS 3 Zrotation Xrotation Yrotation
        JOINT ElbowLeft
        {
          OFFSET -1.249950 -27.060254 2.707292
          CHANNELS 3 Zrotation Xrotation Yrotation
          JOINT WristLeft
          {
            OFFSET 1.071539 -21.751175 -4.107828
            CHANNELS 3 Zrotation Xrotation Yrotation
            JOINT HandLeft
            {
              OFFSET 0.349230 -6.084375 -1.263519
              CHANNELS 3 Zrotation Xrotation Yrotation
              JOINT HandTipLeft
              {
                OFFSET 2.277807 -6.820785 -1.967190
                CHANNELS 3 Zrotation Xrotation Yrotation
                End Site
                {
                  OFFSET 0 0 0
                }
              }
              JOINT ThumbLeft
              {
                OFFSET 3.827222 0.486363 -3.844051
                CHANNELS 3 Zrotation Xrotation Yrotation
                End Site
                {
                  OFFSET 0 0 0
                }
              }
            }
          }
        }
      }
      JOINT ShoulderRight
      {
        OFFSET 15.439105 -3.074339 -7.524006
        CHANNELS 3 Zrotation Xrotation Yrotation
        JOINT ElbowRight
        {
          OFFSET 7.332015 -26.744588 -1.600927
          CHANNELS 3 Zrotation Xrotation Yrotation
          JOINT WristRight
          {
            OFFSET 0.357086 -23.508759 -5.495801
            CHANNELS 3 Zrotation Xrotation Yrotation
            JOINT HandRight
            {
              OFFSET -1.428058 -6.041394 -0.828668
              CHANNELS 3 Zrotation Xrotation Yrotation
              JOINT HandTipRight
              {
                OFFSET -0.354551 -6.926177 -0.845395
                CHANNELS 3 Zrotation Xrotation Yrotation
                End Site
                {
                  OFFSET 0 0 0
                }
              }
              JOINT ThumbRight
              {
                OFFSET -4.113209 -0.505334 -1.989035
                CHANNELS 3 Zrotation Xrotation Yrotation
                End Site
                {
                  OFFSET 0 0 0
                }
              }
            }
          }
        }
      }
    }
  }
  JOINT HipLeft
  {
    OFFSET -6.298795 -0.043066 -1.409325
    CHANNELS 3 Zrotation Xrotation Yrotation
    JOINT KneeLeft
    {
      OFFSET 3.509385 -36.142320 5.948874
      CHANNELS 3 Zrotation Xrotation Yrotation
      JOINT AnkleLeft
      {
        OFFSET 4.107228 -34.925598 8.021047
        CHANNELS 3 Zrotation Xrotation Yrotation
        JOINT FootLeft
        {
          OFFSET -0.285024 -8.335145 -5.758131
          CHANNELS 3 Zrotation Xrotation Yrotation
          End Site
          {
            OFFSET 0 0 0
          }
        }
      }
    }
  }
  JOINT HipRight
  {
    OFFSET 7.836225 1.695008 -5.858593
    CHANNELS 3 Zrotation Xrotation Yrotation
    JOINT KneeRight
    {
      OFFSET 9.961612 -34.030913 1.595300
      CHANNELS 3 Zrotation Xrotation Yrotation
      JOINT AnkleRight
      {
        OFFSET 4.035933 -36.520019 7.690438
        CHANNELS 3 Zrotation Xrotation Yrotation
        JOINT FootRight
        {
          OFFSET -0.907518 -8.251223 -5.740611
          CHANNELS 3 Zrotation Xrotation Yrotation
          End Site
          {
            OFFSET 0 0 0
          }
        }
      }
    }
  }
}
MOTION
Frames: 13
Frame Time: 0.033333
-69.827735 81.990914 328.299114 1.963788 1.295063 11.705750 0.012852 -0.092853 -11.666312 -0.004295 0.008460 0.074347 -1.191585 -3.302489 -0.833596 0.000000 0.000000 0.000000 -3.448043 -1.620356 -0.317368 -1.668405 -2.177725 0.538152 -5.472754 16.924035 3.482314 -3.322957 -11.918987 -0.055842 0.000000 0.000000 0.000000 0.000000 0.000000 0.000000 119.555705 63.970367 -68.220500 124.005688 36.621098 -25.943259 25.442549 -4.770229 -21.476817 -25.852002 16.005460 33.754026 0.000000 0.000000 0.000000 0.000000 0.000000 0.000000 -4.894745 -1.105278 -12.296426 3.609702 -1.719657 0.425118 -3.255728 8.704593 1.594767 0.000000 0.000000 0.000000 -6.657698 -1.127624 -12.372626 5.808675 1.083488 0.773939 -8.778315 27.937050 2.995591 0.000000 0.000000 0.000000
-69.855673 81.943935 328.202014 2.010779 1.380262 11.943488 -0.028278 -0.091313 -11.906508 -0.043478 0.004644 0.070833 -0.450451 -3.542425 -0.779357 0.000000 0.000000 0.000000 -3.160002 -1.130337 -0.305208 -1.860501 -2.264256 0.540889 -5.243592 16.701830 3.341578 -4.171917 -12.504733 -0.216652 0.000000 0.000000 0.000000 0.000000 0.000000 0.000000 120.597142 63.888895 -69.013814 121.766288 36.830239 -22.300379 27.835041 -7.673454 -27.984099 -28.891832 6.580710 29.165906 0.000000 0.000000 0.000000 0.000000 0.000000 0.000000 -4.974486 -1.095520 -12.537808 3.690831 -1.957763 0.419340 -3.491896 9.095396 1.743961 0.000000 0.000000 0.000000 -6.719945 -1.168378 -12.616205 5.870825 0.821887 0.759799 -9.758957 30.896059 3.625034 0.000000 0.000000 0.000000
-69.869507 81.947181 328.130272 2.008888 1.549763 12.447563 -0.092796 -0.089135 -12.416958 -0.102808 -0.001724 0.061973 -0.282390 -4.287573 -0.977122 0.000000 0.000000 0.000000 -2.890552 -0.792878 -0.298858 -2.051842 -2.382747 0.563039 -5.067778 15.448534 3.118238 -3.804895 -10.092955 0.643052 0.000000 0.000000 0.000000 0.000000 0.000000 0.000000 124.491275 64.205005 -72.724623 119.271098 38.335923 -16.385688 31.956653 -4.781034 -27.516563 -29.485483 -3.098669 14.430413 0.000000 0.000000 0.000000 0.000000 0.000000 0.000000 -5.031170 -1.167981 -13.052944 3.755885 -2.133473 0.416216 -3.738534 9.372276 1.909724 0.000000 0.000000 0.000000 -6.832571 -1.315636 -13.158532 5.968145 0.602449 0.755128 -9.927942 30.507361 3.811999 0.000000 0.000000 0.000000
-69.866625 81.959262 328.006751 2.019061 1.628732 12.850508 -0.155711 -0.114428 -12.823258 -0.155221 -0.025973 0.055842 -1.278887 -4.829988 -1.351803 0.000000 0.000000 0.000000 -2.819073 -0.640160 -0.300145 -2.102110 -2.333009 0.595120 -4.127170 15.559956 2.806004 -4.221763 -10.884557 0.400224 0.000000 0.000000 0.000000 0.000000 0.000000 0.000000 131.933875 65.021303 -80.707567 117.161816 41.236678 -11.624828 34.017992 -1.112599 -24.466496 -32.841838 -17.017669 -14.631324 0.000000 0.000000 0.000000 0.000000 0.000000 0.000000 -5.061944 -1.169069 -13.457214 3.785165 -2.297910 0.407100 -3.691777 8.912695 1.884181 0.000000 0.000000 0.000000 -6.999057 -1.469509 -13.626205 6.096327 0.619411 0.785884 -8.593374 27.376110 2.910784 0.000000 0.000000 0.000000
-69.864673 81.964125 327.853302 2.027520 1.612897 13.063875 -0.202279 -0.158633 -13.036668 -0.190638 -0.064790 0.053248 -3.183032 -5.127974 -1.849088 0.000000 0.000000 0.000000 -2.905527 -0.590108 -0.307515 -2.063409 -2.168287 0.637112 -2.464505 14.934040 2.174389 -5.142307 -10.978581 0.311916 0.000000 0.000000 0.000000 0.000000 0.000000 0.000000 142.167441 65.696449 -92.125453 115.517664 45.352172 -7.114039 35.555564 3.234906 -20.484489 -38.944649 -25.879279 -45.807319 0.000000 0.000000 0.000000 0.000000 0.000000 0.000000 -5.033207 -1.132554 -13.660836 3.748563 -2.406501 0.390093 -3.248732 7.683580 1.595220 0.000000 0.000000 0.000000 -7.138218 -1.603223 -13.910411 6.230998 0.824352 0.844016 -6.281096 20.434863 1.476528 0.000000 0.000000 0.000000
-69.855887 81.974651 327.670192 2.040595 1.547661 13.040063 -0.229431 -0.215851 -13.010506 -0.209708 -0.102746 0.053671 -5.596462 -5.224050 -2.383196 0.000000 0.000000 0.000000 -3.187074 -0.797004 -0.323699 -1.832597 -1.845590 0.676375 -1.016208 13.008139 1.508413 -5.547970 -8.245055 1.089767 0.000000 0.000000 0.000000 0.000000 0.000000 0.000000 154.016459 65.742517 -105.718903 114.485232 50.202203 -4.458451 37.458991 9.522480 -15.480603 -43.902863 -28.293286 -55.684779 0.000000 0.000000 0.000000 0.000000 0.000000 0.000000 -5.013905 -1.134937 -13.633579 3.717446 -2.425210 0.379980 -2.121551 6.737375 0.779612 0.000000 0.000000 0.000000 -7.277085 -1.755401 -13.967400 6.356925 1.187460 0.919940 -3.257744 6.878752 0.220708 0.000000 0.000000 0.000000
-69.867895 81.945426 327.512697 2.060176 1.398063 13.028758 -0.231110 -0.248088 -12.994389 -0.204098 -0.131713 0.057593 -7.796601 -5.034294 -2.767800 0.000000 0.000000 0.000000 -3.465093 -1.047209 -0.333665 -1.567130 -1.572677 0.682246 0.012153 10.098017 0.920053 -5.803900 -5.339381 1.642547 0.000000 0.000000 0.000000 0.000000 0.000000 0.000000 163.972547 65.419127 -117.800960 114.626591 55.776470 1.313712 38.707670 7.923875 -17.348424 -41.861092 -25.479027 -39.764002 0.000000 0.000000 0.000000 0.000000 0.000000 0.000000 -4.964965 -1.054223 -13.608375 3.669364 -2.413679 0.370701 -1.372479 5.806832 0.249730 0.000000 0.000000 0.000000 -7.344119 -1.860916 -14.030279 6.406157 1.612103 1.000430 -1.352204 -1.712230 -0.333577 0.000000 0.000000 0.000000
-69.890433 81.862037 327.392961 2.094941 1.183615 12.933137 -0.216443 -0.255837 -12.892110 -0.179227 -0.151757 0.064297 -9.365081 -4.689681 -2.963709 0.000000 0.000000 0.000000 -3.680873 -1.126291 -0.337915 -1.349866 -1.488280 0.662487 0.946284 7.758034 0.441863 -6.104448 -2.067673 2.443609 0.000000 0.000000 0.000000 0.000000 0.000000 0.000000 171.005880 65.093375 -126.913056 115.417724 60.628435 6.886805 38.385203 4.001573 -20.167503 -35.436032 -18.637118 -20.847624 0.000000 0.000000 0.000000 0.000000 0.000000 0.000000 -4.891045 -0.856443 -13.484617 3.612642 -2.457513 0.357514 -1.103531 5.098093 0.075767 0.000000 0.000000 0.000000 -7.306161 -1.804510 -13.952790 6.321427 1.915952 1.040704 0.131500 -6.770699 -0.763894 0.000000 0.000000 0.000000
-69.924966 81.697640 327.335249 2.174357 0.932889 12.796323 -0.186071 -0.231803 -12.746878 -0.135691 -0.157048 0.074342 -10.325469 -4.290298 -3.004701 0.000000 0.000000 0.000000 -3.880439 -1.291651 -0.335350 -1.089616 -1.435529 0.600317 1.633868 5.547402 0.062314 -6.966618 0.307381 3.014612 0.000000 0.000000 0.000000 0.000000 0.000000 0.000000 174.250910 65.345937 -131.809206 117.888063 64.152577 10.763741 32.473331 -3.424746 -24.100481 -24.980039 -6.778080 -5.762357 0.000000 0.000000 0.000000 0.000000 0.000000 0.000000 -4.836127 -0.579746 -13.310936 3.555919 -2.512298 0.345921 -1.072264 4.147078 0.078360 0.000000 0.000000 0.000000 -7.209223 -1.603421 -13.783444 6.185924 2.077762 1.052705 0.543601 -7.358864 -0.987194 0.000000 0.000000 0.000000
-69.992207 81.470243 327.374871 2.253269 0.664284 12.755777 -0.132036 -0.181352 -12.697275 -0.075572 -0.142707 0.085621 -10.608820 -3.751313 -2.844734 0.000000 0.000000 0.000000 -3.909722 -1.237820 -0.320261 -0.986801 -1.788090 0.501414 1.744338 2.412226 -0.209226 -7.560084 3.592297 3.741141 0.000000 0.000000 0.000000 0.000000 0.000000 0.000000 176.965444 65.374695 -135.897725 118.723263 66.762887 15.110887 28.762851 -9.932512 -30.133293 -21.048819 1.532759 4.151758 0.000000 0.000000 0.000000 0.000000 0.000000 0.000000 -4.738523 -0.215392 -13.219638 3.479365 -2.657753 0.325482 -1.146662 3.274627 0.155830 0.000000 0.000000 0.000000 -6.984462 -1.277739 -13.661640 5.947756 2.046455 1.027223 -0.456176 -2.111458 -0.948023 0.000000 0.000000 0.000000
-70.064637 81.242023 327.451449 2.302828 0.447790 12.872467 -0.100472 -0.124242 -12.807909 -0.048120 -0.109937 0.090898 -10.277795 -3.205749 -2.566402 0.000000 0.000000 0.000000 -3.740474 -1.124587 -0.293094 -1.033639 -2.262822 0.402675 1.704143 -0.125342 -0.388921 -8.704846 6.108354 4.559526 0.000000 0.000000 0.000000 0.000000 0.000000 0.000000 177.452948 65.683517 -136.995088 119.577944 67.313583 15.780419 31.802286 -11.847476 -33.268619 -22.232290 5.739877 11.928025 0.000000 0.000000 0.000000 0.000000 0.000000 0.000000 -4.609653 0.096623 -13.288297 3.369435 -2.729453 0.305876 -0.876554 -0.732051 0.101631 0.000000 0.000000 0.000000 -6.740068 -0.999716 -13.707003 5.693629 2.008919 1.000147 0.557893 -6.609272 -1.087706 0.000000 0.000000 0.000000
-70.153982 81.003005 327.598871 2.328151 0.321312 13.141108 -0.084258 -0.038196 -13.074792 -0.040585 -0.065477 0.091373 -9.542177 -2.897665 -2.305447 0.000000 0.000000 0.000000 -3.431313 -0.969479 -0.263556 -1.208380 -2.956483 0.307154 0.994873 -1.708632 -0.347720 -8.433238 8.430244 5.074530 0.000000 0.000000 0.000000 0.000000 0.000000 0.000000 175.741903 66.072214 -134.987700 119.414241 67.314807 19.665323 32.577115 -14.994615 -36.865695 -20.275937 11.167223 15.405433 0.000000 0.000000 0.000000 0.000000 0.000000 0.000000 -4.471098 0.370965 -13.512582 3.265609 -2.829496 0.286154 -1.747008 0.833664 0.674240 0.000000 0.000000 0.000000 -6.427287 -0.730903 -13.886945 5.383257 1.800650 0.942193 -1.005122 -1.294518 -0.616796 0.000000 0.000000 0.000000
-70.220191 80.849969 327.771106 2.336559 0.361648 13.679478 -0.090987 0.032262 -13.616285 -0.052552 -0.021799 0.087724 -8.254023 -2.995187 -2.103469 0.000000 0.000000 0.000000 -3.078843 -0.859124 -0.239313 -1.446940 -3.723768 0.229847 0.075396 -1.561297 -0.131615 -8.645821 8.334720 5.201899 0.000000 0.000000 0.000000 0.000000 0.000000 0.000000 172.716552 66.475014 -131.111217 117.749891 65.726965 22.621179 32.890804 -15.751634 -38.017068 -13.816425 15.524456 11.470050 0.000000 0.000000 0.000000 0.000000 0.000000 0.000000 -4.391966 0.508676 -14.026008 3.205562 -2.918913 0.274329 -5.321051 10.753748 3.100354 0.000000 0.000000 0.000000 -6.244497 -0.631507 -14.377379 5.150710 1.579681 0.889120 -2.308842 2.499273 -0.033225 0.000000 0.000000 0.000000
